<?xml version="1.0" standalone="no"?>
<!DOCTYPE svg PUBLIC "-//W3C//DTD SVG 20010904//EN"
 "http://www.w3.org/TR/2001/REC-SVG-20010904/DTD/svg10.dtd">
<svg version="1.0" xmlns="http://www.w3.org/2000/svg"
 width="96.000000pt" height="96.000000pt" viewBox="0 0 512.000000 512.000000"
 preserveAspectRatio="xMidYMid meet">

<g transform="translate(0.000000,512.000000) scale(0.100000,-0.100000)"
fill="#FFFF" stroke="none">
<path d="M330 4929 c-55 -25 -95 -62 -123 -114 l-22 -40 0 -2215 0 -2215 22
-41 c30 -56 94 -109 148 -123 31 -8 664 -11 2217 -11 2165 0 2173 1 2218 21
55 25 95 62 123 114 l22 40 0 2215 0 2215 -22 41 c-30 56 -94 109 -148 123
-31 8 -664 11 -2217 11 -2165 0 -2173 -1 -2218 -21z m2605 -1030 c182 -11 368
-32 500 -57 l90 -17 3 -304 2 -303 -37 6 c-37 5 -104 12 -363 38 -69 6 -248
12 -397 12 l-273 -1 0 323 0 324 158 -6 c86 -3 229 -9 317 -15z m-655 -451 c0
-291 4 -477 11 -501 5 -20 21 -44 34 -53 15 -10 116 -27 302 -49 153 -19 329
-42 391 -50 330 -46 467 -122 557 -309 74 -156 99 -298 98 -566 -2 -524 -151
-783 -509 -885 -87 -24 -302 -57 -316 -48 -5 2 -8 221 -8 487 0 319 -4 494
-11 514 -21 61 -31 63 -549 126 -359 44 -516 100 -646 230 -124 124 -166 244
-186 532 -27 405 56 694 244 843 111 89 301 158 493 179 44 5 83 10 88 11 4 0
7 -207 7 -461z m-450 -1805 c151 -12 343 -18 538 -18 l302 0 0 -324 0 -324
-252 6 c-139 4 -332 13 -428 22 -198 17 -441 44 -452 51 -5 3 -8 142 -8 310
l0 305 33 -5 c17 -3 138 -14 267 -23z"/>
</g>
</svg>
